<svg width="1440" height="1085" viewBox="0 0 1440 1085" fill="none" xmlns="http://www.w3.org/2000/svg">
<g clip-path="url(#clip0_38_103)">
<path d="M0 658.233L34.4 668.722C68.8 679.391 137.6 700.368 206.08 720.621C274.72 740.874 342.88 760.043 411.52 760.766C480 761.308 548.8 743.225 617.28 727.854C685.92 712.483 754.08 699.825 822.72 690.422C891.2 681.199 960 675.051 1028.48 694.4C1097.12 713.749 1165.28 758.234 1233.92 772.701C1302.4 787.168 1371.2 771.616 1405.6 763.659L1440 755.883V1086.81H1405.6C1371.2 1086.81 1302.4 1086.81 1233.92 1086.81C1165.28 1086.81 1097.12 1086.81 1028.48 1086.81C960 1086.81 891.2 1086.81 822.72 1086.81C754.08 1086.81 685.92 1086.81 617.28 1086.81C548.8 1086.81 480 1086.81 411.52 1086.81C342.88 1086.81 274.72 1086.81 206.08 1086.81C137.6 1086.81 68.8 1086.81 34.4 1086.81H0V658.233Z" fill="#76C893"/>
<path d="M0 802.9L34.4 803.804C68.8 804.708 137.6 806.517 206.08 810.133C274.72 813.75 342.88 819.175 411.52 804.708C480 790.242 548.8 755.883 617.28 748.107C685.92 740.151 754.08 758.957 822.72 778.487C891.2 798.017 960 818.632 1028.48 825.866C1097.12 833.099 1165.28 826.951 1233.92 825.142C1302.4 823.334 1371.2 825.866 1405.6 826.951L1440 828.217V1086.81H1405.6C1371.2 1086.81 1302.4 1086.81 1233.92 1086.81C1165.28 1086.81 1097.12 1086.81 1028.48 1086.81C960 1086.81 891.2 1086.81 822.72 1086.81C754.08 1086.81 685.92 1086.81 617.28 1086.81C548.8 1086.81 480 1086.81 411.52 1086.81C342.88 1086.81 274.72 1086.81 206.08 1086.81C137.6 1086.81 68.8 1086.81 34.4 1086.81H0V802.9Z" fill="#00B1B7"/>
<path d="M0 806.517L34.4 805.07C68.8 803.443 137.6 800.549 206.08 797.837C274.72 795.124 342.88 792.593 411.52 804.166C480 815.558 548.8 840.875 617.28 849.917C685.92 858.958 754.08 851.725 822.72 860.767C891.2 869.808 960 895.125 1028.48 905.433C1097.12 915.559 1165.28 910.858 1233.92 890.966C1302.4 871.074 1371.2 835.993 1405.6 818.633L1440 801.092V1086.81H1405.6C1371.2 1086.81 1302.4 1086.81 1233.92 1086.81C1165.28 1086.81 1097.12 1086.81 1028.48 1086.81C960 1086.81 891.2 1086.81 822.72 1086.81C754.08 1086.81 685.92 1086.81 617.28 1086.81C548.8 1086.81 480 1086.81 411.52 1086.81C342.88 1086.81 274.72 1086.81 206.08 1086.81C137.6 1086.81 68.8 1086.81 34.4 1086.81H0V806.517Z" fill="#0090C4"/>
<path d="M0 878.85L34.4 887.892C68.8 896.933 137.6 915.017 206.08 922.612C274.72 930.026 342.88 927.133 411.52 923.154C480 919.176 548.8 914.474 617.28 915.559C685.92 916.825 754.08 924.058 822.72 921.346C891.2 918.633 960 905.975 1028.48 900.188C1097.12 894.583 1165.28 895.668 1233.92 906.518C1302.4 917.368 1371.2 937.983 1405.6 948.109L1440 958.417V1086.81H1405.6C1371.2 1086.81 1302.4 1086.81 1233.92 1086.81C1165.28 1086.81 1097.12 1086.81 1028.48 1086.81C960 1086.81 891.2 1086.81 822.72 1086.81C754.08 1086.81 685.92 1086.81 617.28 1086.81C548.8 1086.81 480 1086.81 411.52 1086.81C342.88 1086.81 274.72 1086.81 206.08 1086.81C137.6 1086.81 68.8 1086.81 34.4 1086.81H0V878.85Z" fill="#0067C2"/>
<path d="M0 985.542L34.4 989.52C68.8 993.317 137.6 1001.27 206.08 1006.88C274.72 1012.67 342.88 1016.28 411.52 1009.59C480 1003.08 548.8 986.084 617.28 985.542C685.92 984.999 754.08 1000.55 822.72 999.647C891.2 998.742 960 981.382 1028.48 976.138C1097.12 971.075 1165.28 978.308 1233.92 977.947C1302.4 977.766 1371.2 969.809 1405.6 966.012L1440 962.033V1086.81H1405.6C1371.2 1086.81 1302.4 1086.81 1233.92 1086.81C1165.28 1086.81 1097.12 1086.81 1028.48 1086.81C960 1086.81 891.2 1086.81 822.72 1086.81C754.08 1086.81 685.92 1086.81 617.28 1086.81C548.8 1086.81 480 1086.81 411.52 1086.81C342.88 1086.81 274.72 1086.81 206.08 1086.81C137.6 1086.81 68.8 1086.81 34.4 1086.81H0V985.542Z" fill="#3831A8"/>
</g>
<defs>
<clipPath id="clip0_38_103">
<rect width="1440" height="1085" fill="white"/>
</clipPath>
</defs>
</svg>
