<svg width="44" height="49" viewBox="0 0 44 49" fill="none" xmlns="http://www.w3.org/2000/svg">
<path d="M21.453 1.94107C21.2627 2.13045 21.1676 3.33769 21.1676 5.8232C21.1676 9.25557 21.1438 9.46861 20.6205 10.1077C19.907 10.9599 17.8378 13.8715 17.8378 14.0135C17.8378 14.0846 18.0757 14.1082 18.3849 14.1082C18.8843 14.0846 18.9081 14.1556 18.9795 16.8541L19.0508 19.6474H18.3373H17.6L17.5524 24.5474L17.4811 29.471L15.7686 29.542L14.0324 29.6131V27.4826V25.3522L14.8173 25.2812C15.5784 25.2102 15.5784 25.1865 15.6497 23.8372L15.7211 22.4879H14.8886C14.1276 22.4879 14.0562 22.559 13.9849 23.2454C13.9135 23.9792 13.8659 24.0266 12.9622 24.0266C12.1059 24.0266 12.0108 23.9556 11.8919 23.3164C11.7968 22.7246 11.654 22.5826 11.0119 22.5353C10.3222 22.4643 10.2508 22.5116 10.1795 23.2454C10.1081 23.9792 10.0605 24.0266 9.15675 24.0266C8.25297 24.0266 8.2054 23.9792 8.13405 23.2454C8.0627 22.559 7.99135 22.4879 7.25405 22.4879C6.51675 22.4879 6.4454 22.559 6.37405 23.2454C6.3027 23.9556 6.23135 24.0266 5.37513 24.0976C4.37621 24.1923 4.04324 23.9082 4.04324 23.0087C4.04324 22.5826 3.90054 22.4879 3.32972 22.4879H2.61621V23.9082V25.3285H3.44864H4.28108V35.8623V46.3961H10.8216H17.3622V41.8039C17.3622 37.4483 17.3859 37.1879 17.9092 36.4541C18.48 35.6019 19.4551 34.9391 20.5254 34.6788L21.1676 34.5131V40.4546V46.3961H21.7622C22.0951 46.3961 22.3568 46.3251 22.3805 46.2068C22.3805 46.1121 22.4281 43.5082 22.4757 40.4073C22.5232 37.3063 22.6184 34.7024 22.6897 34.6314C22.9751 34.3474 25.1157 35.673 25.6151 36.4304C26.1384 37.1879 26.1622 37.4483 26.1622 41.8039V46.3961H32.8216H39.4811V35.8623V25.3285H40.3135H41.1459V23.9082C41.1459 22.4879 41.1459 22.4879 40.4562 22.4879C39.8378 22.4879 39.7427 22.5826 39.6713 23.2454C39.6 24.0029 39.5524 24.0266 38.5297 24.0266C37.4832 24.0266 37.4595 24.0029 37.3881 23.2454C37.3167 22.5116 37.2454 22.4643 36.5557 22.5353C35.8897 22.6063 35.7946 22.701 35.7232 23.3638C35.6519 24.0739 35.6043 24.1213 34.653 24.0739C33.7016 24.0266 33.654 23.9792 33.5827 23.2454C33.5113 22.5116 33.44 22.4643 32.7503 22.5353C32.0843 22.6063 31.9892 22.701 31.9178 23.3638C31.8465 24.0976 31.7989 24.1213 30.8476 24.0739C29.8962 24.0266 29.8486 23.9792 29.7773 23.2454C29.7059 22.559 29.6346 22.4879 28.8735 22.4879H28.0411L28.1124 23.8372C28.1838 25.1865 28.1838 25.2102 28.9686 25.2812L29.7297 25.3522V27.4826V29.6131L27.8984 29.542L26.0432 29.471L25.9719 24.5474L25.9243 19.6474H25.187H24.4735L24.5449 16.8541C24.6162 14.1556 24.64 14.0846 25.1632 14.1082C25.4486 14.1082 25.6865 14.0609 25.6627 13.9899C25.6627 13.8242 25.0443 12.9483 23.4984 10.8179C22.4281 9.37392 22.3568 9.16088 22.3568 7.83528V6.41499L23.2605 6.27296C25.4486 5.91788 27.4703 5.39711 28.493 4.94735L29.6108 4.45025L28.8973 4.23721C28.493 4.11885 27.9222 3.69276 27.613 3.29035C26.8043 2.22513 25.4011 1.65702 23.427 1.65702C22.4281 1.65702 21.6195 1.77538 21.453 1.94107ZM22.5946 15.5995C22.7135 15.8599 22.8324 16.5937 22.8324 17.2565V18.4638H21.7622H20.6919V17.2565C20.6919 15.7652 21.0011 15.1498 21.7622 15.1498C22.0951 15.1498 22.4519 15.3391 22.5946 15.5995ZM22.547 22.3932C23.0227 22.701 23.0703 22.9614 23.0703 24.642V26.5121H21.7622H20.454V24.7367C20.454 23.2691 20.5492 22.8667 20.9297 22.4879C21.5005 21.9198 21.8335 21.8961 22.547 22.3932ZM11.8919 25.8019V26.5121H9.03783C6.20756 26.5121 6.18378 26.5121 6.18378 25.9676C6.18378 25.6599 6.25513 25.3285 6.35026 25.2575C6.42162 25.1628 7.70594 25.0918 9.20432 25.0918H11.8919V25.8019ZM37.5308 25.8493L37.6022 26.5121H34.7481H31.8703V25.8019V25.0681L34.6768 25.1391L37.4595 25.2102L37.5308 25.8493ZM9.98918 30.0628C10.3697 30.4416 10.4649 30.844 10.4649 32.3116V34.1106L9.10918 34.0396L7.72972 33.9686L7.65837 32.3826C7.58702 30.9387 7.65837 30.7019 8.18162 30.1812C8.89513 29.471 9.37081 29.4474 9.98918 30.0628ZM35.5805 30.1812C36.1038 30.7019 36.1751 30.9387 36.1038 32.3826L36.0324 33.9686L34.6768 34.0396L33.2973 34.1106V32.3116C33.2973 30.844 33.3924 30.4416 33.773 30.0628C34.3913 29.4474 34.867 29.471 35.5805 30.1812ZM10.0843 38.7976C10.3935 39.1527 10.4649 39.6024 10.4173 40.9754L10.3459 42.7271H9.03783H7.72972V40.8807C7.72972 39.3184 7.80108 38.9633 8.18162 38.6792C8.82378 38.2295 9.60864 38.2532 10.0843 38.7976ZM35.5805 38.6792C35.9611 38.9633 36.0324 39.3184 36.0324 40.8807V42.7271H34.7243H33.4162L33.3449 40.9754C33.2973 39.6024 33.3686 39.1527 33.6778 38.7976C34.1535 38.2532 34.9384 38.2295 35.5805 38.6792Z" fill="#F7FFF7"/>
<path d="M18.908 40.8097C18.6464 40.9991 18.5275 41.2594 18.6226 41.5198C18.8367 42.0406 19.5978 41.9222 19.6929 41.3305C19.8356 40.6913 19.4313 40.4309 18.908 40.8097Z" fill="#F7FFF7"/>
<path d="M24.0455 40.715C23.5936 40.9754 23.8315 41.7802 24.3785 41.7802C24.6877 41.7802 24.878 41.5908 24.9255 41.2831C24.9969 40.7387 24.5212 40.4073 24.0455 40.715Z" fill="#F7FFF7"/>
</svg>
