<?xml version="1.0" ?><svg id="Capa_1" style="enable-background:new 0 0 512 512;" version="1.1" viewBox="0 0 512 512" xml:space="preserve" xmlns="http://www.w3.org/2000/svg" xmlns:xlink="http://www.w3.org/1999/xlink"><path d="M10,146v140c0,11.046,8.954,20,20,20h36h30h306c11.046,0,20-8.954,20-20v-80v-12v-48H10z" style="fill:#FD3A4E;"/><path d="M502,226v240c0,11.05-8.95,20-20,20H116c-11.05,0-20-8.95-20-20V306v-80c0-11.05,8.95-20,20-20h306  h60C493.05,206,502,214.95,502,226z" style="fill:#FEB756;"/><circle cx="432" cy="276" r="30" style="fill:#4DBBEB;"/><rect height="60" style="fill:#57555C;" width="412" x="10" y="86"/><g><path d="M422,46v40H10V46c0-11.05,8.95-20,20-20h372C413.05,26,422,34.95,422,46z" style="fill:#FD3A4E;"/><circle cx="372" cy="276" r="30" style="fill:#FD3A4E;"/></g><rect height="40" style="fill:#4DBBEB;" width="103" x="156" y="256"/><path d="M156,416c-5.52,0-10,4.48-10,10s4.48,10,10,10s10-4.48,10-10S161.52,416,156,416z"/><path d="M432,236c-11.938,0-22.665,5.264-30,13.585C394.665,241.264,383.938,236,372,236c-22.056,0-40,17.944-40,40s17.944,40,40,40  c11.938,0,22.665-5.264,30-13.585c7.335,8.321,18.062,13.585,30,13.585c22.056,0,40-17.944,40-40S454.056,236,432,236z M372,296  c-11.028,0-20-8.972-20-20s8.972-20,20-20s20,8.972,20,20S383.028,296,372,296z M432,296c-11.028,0-20-8.972-20-20s8.972-20,20-20  s20,8.972,20,20S443.028,296,432,296z"/><path d="M482,196h-50V46c0-16.542-13.458-30-30-30H30C13.458,16,0,29.458,0,46v240c0,16.542,13.458,30,30,30h56v150  c0,16.542,13.458,30,30,30h366c16.542,0,30-13.458,30-30V226C512,209.458,498.542,196,482,196z M20,96h392v40H20V96z M30,36h372  c5.514,0,10,4.486,10,10v30H20V46C20,40.486,24.486,36,30,36z M30,296c-5.514,0-10-4.486-10-10V156h392v40H116  c-16.542,0-30,13.458-30,30v70H30z M492,466c0,5.514-4.486,10-10,10H116c-5.514,0-10-4.486-10-10V226c0-5.514,4.486-10,10-10h366  c5.514,0,10,4.486,10,10V466z"/><path d="M156,306h103c5.522,0,10-4.478,10-10v-40c0-5.522-4.478-10-10-10H156c-5.522,0-10,4.478-10,10v40  C146,301.522,150.478,306,156,306z M166,266h83v20h-83V266z"/><path d="M156,376h43c5.522,0,10-4.478,10-10s-4.478-10-10-10h-43c-5.522,0-10,4.478-10,10S150.478,376,156,376z"/><path d="M229,366c0,5.522,4.478,10,10,10h40c5.522,0,10-4.478,10-10s-4.478-10-10-10h-40C233.478,356,229,360.478,229,366z"/><path d="M302,416H199c-5.522,0-10,4.478-10,10s4.478,10,10,10h103c5.522,0,10-4.478,10-10S307.522,416,302,416z"/><path d="M362,356h-40c-5.522,0-10,4.478-10,10s4.478,10,10,10h40c5.522,0,10-4.478,10-10S367.522,356,362,356z"/><path d="M442,356h-40c-5.522,0-10,4.478-10,10s4.478,10,10,10h40c5.522,0,10-4.478,10-10S447.522,356,442,356z"/><g/><g/><g/><g/><g/><g/><g/><g/><g/><g/><g/><g/><g/><g/><g/></svg>